<mxfile host="drawio-plugin" modified="2024-02-04T04:51:52.503Z" agent="5.0 (X11; Linux x86_64) AppleWebKit/537.36 (KHTML, like Gecko) Chrome/111.0.0.0 Safari/537.36" etag="cWZQ2Y4Pq1mtFELxoiWd" version="20.5.3" type="embed"><diagram name="Page-1" id="4TX2ljQ4K9UuKOcrYJfa"><mxGraphModel dx="1353" dy="704" grid="1" gridSize="10" guides="1" tooltips="1" connect="1" arrows="1" fold="1" page="1" pageScale="1" pageWidth="850" pageHeight="1100" math="0" shadow="0"><root><mxCell id="0"/><mxCell id="1" parent="0"/><mxCell id="10" value="" style="rounded=0;whiteSpace=wrap;html=1;fontFamily=Helvetica;" parent="1" vertex="1"><mxGeometry x="-410" y="110" width="250" height="100" as="geometry"/></mxCell><mxCell id="PEi03XakC4wtV7aFMW17-1" value="&lt;p style=&quot;margin:0px;margin-top:4px;text-align:center;&quot;&gt;&lt;b&gt;PlantProtection&lt;/b&gt;&lt;/p&gt;&lt;p style=&quot;margin:0px;margin-top:4px;text-align:center;&quot;&gt;&lt;b&gt;Product&lt;/b&gt;&lt;/p&gt;&lt;hr size=&quot;1&quot;&gt;&lt;p style=&quot;margin:0px;margin-left:4px;&quot;&gt;&amp;nbsp; permissionHolder: eCH-0108:uidType&lt;/p&gt;&lt;p style=&quot;margin:0px;margin-left:4px;&quot;&gt;&amp;nbsp; &amp;nbsp; &amp;nbsp;|&amp;nbsp; eCH-0199:organisationMailAddressType&lt;br&gt;&lt;/p&gt;&lt;p style=&quot;margin:0px;margin-left:4px;&quot;&gt;&amp;nbsp; &amp;nbsp; &amp;nbsp; &amp;nbsp; &amp;nbsp;(as fallback)&lt;/p&gt;&lt;hr size=&quot;1&quot;&gt;&lt;p style=&quot;margin:0px;margin-left:4px;&quot;&gt;&lt;br&gt;&lt;/p&gt;" style="verticalAlign=top;align=left;overflow=fill;fontSize=12;fontFamily=Helvetica;html=1;sketch=0;strokeWidth=2;fillColor=#e1d5e7;strokeColor=#9673a6;" parent="1" vertex="1"><mxGeometry x="-574.15" y="246" width="304.15" height="104" as="geometry"/></mxCell><mxCell id="PEi03XakC4wtV7aFMW17-3" value="" style="endArrow=classic;html=1;sketch=0;fontFamily=Helvetica;curved=1;exitX=0.53;exitY=1.026;exitDx=0;exitDy=0;exitPerimeter=0;" parent="1" source="PEi03XakC4wtV7aFMW17-1" target="PEi03XakC4wtV7aFMW17-12" edge="1"><mxGeometry width="50" height="50" relative="1" as="geometry"><mxPoint x="-86.31064908722078" y="460.5" as="sourcePoint"/><mxPoint x="-54.53681541582159" y="431" as="targetPoint"/></mxGeometry></mxCell><mxCell id="PEi03XakC4wtV7aFMW17-7" value="" style="endArrow=classic;html=1;sketch=0;fontFamily=Helvetica;curved=1;entryX=-0.008;entryY=0.506;entryDx=0;entryDy=0;entryPerimeter=0;" parent="1" source="PEi03XakC4wtV7aFMW17-1" target="PEi03XakC4wtV7aFMW17-11" edge="1"><mxGeometry width="50" height="50" relative="1" as="geometry"><mxPoint x="-362.8000000000002" y="87.4147114235252" as="sourcePoint"/><mxPoint x="-475.68000000000006" y="99.86250504005284" as="targetPoint"/></mxGeometry></mxCell><mxCell id="PEi03XakC4wtV7aFMW17-11" value="&lt;p style=&quot;margin:0px;margin-top:4px;text-align:center;&quot;&gt;&lt;b&gt;PlantProtection&lt;/b&gt;&lt;/p&gt;&lt;p style=&quot;margin:0px;margin-top:4px;text-align:center;&quot;&gt;&lt;b&gt;ProductCategory&lt;/b&gt;&lt;/p&gt;&lt;hr size=&quot;1&quot;&gt;&lt;p style=&quot;margin:0px;margin-left:4px;&quot;&gt;&amp;nbsp;item: EnumeratedItem&lt;br&gt;&lt;/p&gt;&lt;hr size=&quot;1&quot;&gt;&lt;p style=&quot;margin:0px;margin-left:4px;&quot;&gt;&lt;br&gt;&lt;/p&gt;" style="verticalAlign=top;align=left;overflow=fill;fontSize=12;fontFamily=Helvetica;html=1;sketch=0;strokeWidth=2;" parent="1" vertex="1"><mxGeometry x="-225" y="246" width="180" height="104" as="geometry"/></mxCell><mxCell id="PEi03XakC4wtV7aFMW17-12" value="&lt;p style=&quot;margin:0px;margin-top:4px;text-align:center;&quot;&gt;&lt;b style=&quot;background-color: initial;&quot;&gt;Indication&lt;/b&gt;&lt;/p&gt;&lt;hr size=&quot;1&quot;&gt;&lt;p style=&quot;margin:0px;margin-left:4px;&quot;&gt;&amp;nbsp;&lt;br&gt;&lt;/p&gt;&lt;hr size=&quot;1&quot;&gt;&lt;p style=&quot;margin:0px;margin-left:4px;&quot;&gt;&lt;br&gt;&lt;/p&gt;" style="verticalAlign=top;align=left;overflow=fill;fontSize=12;fontFamily=Helvetica;html=1;sketch=0;strokeWidth=2;" parent="1" vertex="1"><mxGeometry x="-465.85" y="400" width="105.85" height="65.75" as="geometry"/></mxCell><mxCell id="PEi03XakC4wtV7aFMW17-21" value="" style="endArrow=classic;html=1;sketch=0;fontFamily=Helvetica;curved=1;" parent="1" source="PEi03XakC4wtV7aFMW17-12" target="PEi03XakC4wtV7aFMW17-24" edge="1"><mxGeometry width="50" height="50" relative="1" as="geometry"><mxPoint x="-211.58554999999956" y="381.97" as="sourcePoint"/><mxPoint x="-58.65000000000032" y="427.5" as="targetPoint"/></mxGeometry></mxCell><mxCell id="PEi03XakC4wtV7aFMW17-24" value="&lt;p style=&quot;margin:0px;margin-top:4px;text-align:center;&quot;&gt;&lt;b&gt;Pathogen&lt;/b&gt;&lt;/p&gt;&lt;hr size=&quot;1&quot;&gt;&lt;p style=&quot;margin:0px;margin-left:4px;&quot;&gt;&amp;nbsp;&lt;br&gt;&lt;/p&gt;&lt;hr size=&quot;1&quot;&gt;&lt;p style=&quot;margin:0px;margin-left:4px;&quot;&gt;&lt;br&gt;&lt;/p&gt;" style="verticalAlign=top;align=left;overflow=fill;fontSize=12;fontFamily=Helvetica;html=1;sketch=0;strokeWidth=2;" parent="1" vertex="1"><mxGeometry x="-370" y="537.5" width="130" height="82.5" as="geometry"/></mxCell><mxCell id="PEi03XakC4wtV7aFMW17-31" value="&lt;p style=&quot;margin:0px;margin-top:4px;text-align:center;&quot;&gt;&lt;b&gt;Admission&lt;/b&gt;&lt;b style=&quot;background-color: initial;&quot;&gt;Type&lt;/b&gt;&lt;/p&gt;&lt;hr size=&quot;1&quot;&gt;&lt;p style=&quot;margin:0px;margin-left:4px;&quot;&gt;&amp;nbsp;&amp;nbsp;&lt;/p&gt;&lt;hr size=&quot;1&quot;&gt;&lt;p style=&quot;margin:0px;margin-left:4px;&quot;&gt;&lt;br&gt;&lt;/p&gt;" style="verticalAlign=top;align=left;overflow=fill;fontSize=12;fontFamily=Helvetica;html=1;sketch=0;strokeWidth=2;" parent="1" vertex="1"><mxGeometry x="-574.15" y="537.5" width="180" height="82.5" as="geometry"/></mxCell><mxCell id="PEi03XakC4wtV7aFMW17-32" value="" style="endArrow=classic;html=1;sketch=0;fontFamily=Helvetica;curved=1;" parent="1" source="PEi03XakC4wtV7aFMW17-12" target="PEi03XakC4wtV7aFMW17-31" edge="1"><mxGeometry width="50" height="50" relative="1" as="geometry"><mxPoint x="-273.5" y="380" as="sourcePoint"/><mxPoint x="-293.5" y="410" as="targetPoint"/></mxGeometry></mxCell><mxCell id="PEi03XakC4wtV7aFMW17-34" value="&lt;p style=&quot;margin:0px;margin-top:4px;text-align:center;&quot;&gt;&lt;b style=&quot;background-color: initial;&quot;&gt;HazardLabel&lt;/b&gt;&lt;/p&gt;&lt;hr size=&quot;1&quot;&gt;&lt;p style=&quot;margin:0px;margin-left:4px;&quot;&gt;&amp;nbsp;&lt;br&gt;&lt;/p&gt;&lt;hr size=&quot;1&quot;&gt;&lt;p style=&quot;margin:0px;margin-left:4px;&quot;&gt;&lt;br&gt;&lt;/p&gt;" style="verticalAlign=top;align=left;overflow=fill;fontSize=12;fontFamily=Helvetica;html=1;sketch=0;strokeWidth=2;" parent="1" vertex="1"><mxGeometry x="-760" y="265.12" width="135.85" height="65.75" as="geometry"/></mxCell><mxCell id="PEi03XakC4wtV7aFMW17-35" value="" style="endArrow=classic;html=1;sketch=0;fontFamily=Helvetica;curved=1;" parent="1" source="PEi03XakC4wtV7aFMW17-1" target="PEi03XakC4wtV7aFMW17-34" edge="1"><mxGeometry width="50" height="50" relative="1" as="geometry"><mxPoint x="-462" y="341" as="sourcePoint"/><mxPoint x="-293" y="407" as="targetPoint"/></mxGeometry></mxCell><mxCell id="2" value="&lt;p style=&quot;margin:0px;margin-top:4px;text-align:center;&quot;&gt;&lt;b&gt;&lt;i&gt;AbstractProduct&lt;/i&gt;&lt;/b&gt;&lt;/p&gt;&lt;hr size=&quot;1&quot;&gt;&lt;p style=&quot;margin:0px;margin-left:4px;&quot;&gt;&lt;br&gt;&lt;/p&gt;&lt;hr size=&quot;1&quot;&gt;&lt;p style=&quot;margin:0px;margin-left:4px;&quot;&gt;&lt;br&gt;&lt;/p&gt;" style="verticalAlign=top;align=left;overflow=fill;fontSize=12;fontFamily=Helvetica;html=1;sketch=0;strokeWidth=2;" parent="1" vertex="1"><mxGeometry x="-650" y="120" width="164.15" height="80" as="geometry"/></mxCell><mxCell id="5" value="" style="endArrow=block;html=1;sketch=0;fontFamily=Helvetica;curved=1;endFill=0;exitX=0.177;exitY=-0.003;exitDx=0;exitDy=0;entryX=0.538;entryY=0.998;entryDx=0;entryDy=0;entryPerimeter=0;exitPerimeter=0;" parent="1" source="PEi03XakC4wtV7aFMW17-1" target="2" edge="1"><mxGeometry width="50" height="50" relative="1" as="geometry"><mxPoint x="-1071.8000000000002" y="736" as="sourcePoint"/><mxPoint x="-1094.1799999999998" y="619.7" as="targetPoint"/></mxGeometry></mxCell><mxCell id="6" value="&lt;h1&gt;&lt;span style=&quot;background-color: initial;&quot;&gt;eCH-0263&lt;/span&gt;&lt;/h1&gt;&lt;div&gt;&lt;br&gt;&lt;/div&gt;" style="text;html=1;strokeColor=none;fillColor=none;spacing=5;spacingTop=-20;whiteSpace=wrap;overflow=hidden;rounded=0;strokeWidth=2;fontFamily=Helvetica;" parent="1" vertex="1"><mxGeometry x="-398.5" y="120" width="195.7" height="80" as="geometry"/></mxCell><mxCell id="7" value="PlantProtectionProduct" style="text;html=1;strokeColor=none;fillColor=none;align=left;verticalAlign=middle;whiteSpace=wrap;rounded=0;strokeWidth=2;fontFamily=Helvetica;" parent="1" vertex="1"><mxGeometry x="-398.50000000000006" y="160" width="226.4" height="30" as="geometry"/></mxCell><mxCell id="11" value="" style="rounded=0;whiteSpace=wrap;html=1;fillColor=#dae8fc;strokeColor=#6c8ebf;fontFamily=Helvetica;" parent="1" vertex="1"><mxGeometry x="-240" y="376" width="210" height="114" as="geometry"/></mxCell><mxCell id="12" value="eCH-0265 Areas and Crops" style="text;html=1;strokeColor=none;fillColor=none;align=left;verticalAlign=middle;whiteSpace=wrap;rounded=0;strokeWidth=2;fontFamily=Helvetica;" parent="1" vertex="1"><mxGeometry x="-221" y="377.25" width="204" height="30" as="geometry"/></mxCell><mxCell id="13" value="&lt;p style=&quot;margin:0px;margin-top:4px;text-align:center;&quot;&gt;&lt;b&gt;BotanicalPlant&lt;/b&gt;&lt;/p&gt;&lt;hr size=&quot;1&quot;&gt;&lt;p style=&quot;margin:0px;margin-left:4px;&quot;&gt;&lt;br&gt;&lt;/p&gt;" style="verticalAlign=top;align=left;overflow=fill;fontSize=12;fontFamily=Helvetica;html=1;sketch=0;strokeWidth=2;" parent="1" vertex="1"><mxGeometry x="-184" y="407.25" width="130" height="60" as="geometry"/></mxCell><mxCell id="16" value="" style="endArrow=classic;html=1;sketch=0;fontFamily=Helvetica;curved=1;entryX=0;entryY=0.5;entryDx=0;entryDy=0;exitX=1;exitY=0.5;exitDx=0;exitDy=0;" parent="1" source="PEi03XakC4wtV7aFMW17-12" target="13" edge="1"><mxGeometry width="50" height="50" relative="1" as="geometry"><mxPoint x="-376.3489288774638" y="475.75" as="sourcePoint"/><mxPoint x="-170" y="590" as="targetPoint"/></mxGeometry></mxCell><mxCell id="PEi03XakC4wtV7aFMW17-23" value="1..n" style="text;html=1;strokeColor=none;fillColor=none;align=center;verticalAlign=middle;whiteSpace=wrap;rounded=0;fontFamily=Helvetica;" parent="1" vertex="1"><mxGeometry x="-244" y="435.75" width="60" height="30" as="geometry"/></mxCell><mxCell id="38" value="1..n" style="text;html=1;strokeColor=none;fillColor=none;align=center;verticalAlign=middle;whiteSpace=wrap;rounded=0;fontFamily=Helvetica;" parent="1" vertex="1"><mxGeometry x="-340" y="507.5" width="60" height="30" as="geometry"/></mxCell></root></mxGraphModel></diagram></mxfile>